<svg loading="lazy" width="55" height="55" viewBox="0 0 55 55" fill="none" xmlns="http://www.w3.org/2000/svg"> <rect x="8" y="10" width="4" height="11" fill="#000000"></rect> <path d="M43 32L44 30L45.5 30.5L46.5 32V34.5L43 34V32Z" fill="#006CE3"></path> <path d="M52.9038 19.1667L48.7371 10.8333C48.5704 10.5 48.3204 10.3333 47.9871 10.3333H24.7684C24.7129 10.328 24.6568 10.3282 24.6011 10.3333H24.3779L21.8204 2.5833C21.7371 2.25 21.4037 2 21.0704 2H18.3204C17.9037 2 17.5704 2.25 17.4871 2.5833L14.9296 10.3333H12.9871V9.5C12.9871 9 12.6538 8.6667 12.1538 8.6667H7.98712C7.48712 8.6667 7.15382 9 7.15382 9.5V12H3.82042C3.32042 12 2.98712 12.3333 2.98712 12.8333V14.5C2.98712 16.8333 4.82042 18.6667 7.15382 18.6667V21.1667C7.15382 21.6667 7.48712 22 7.98712 22H12.1538C12.6538 22 12.9871 21.6667 12.9871 21.1667V20.3334H14.6538V50.3334H9.65382C9.15382 50.3334 8.82052 50.6667 8.82052 51.1667C8.82052 51.6667 9.15382 52 9.65382 52H15.4871H23.8204H33.8204C34.3204 52 34.6537 51.6667 34.6537 51.1667C34.6537 50.6667 34.3204 50.3334 33.8204 50.3334H24.6537V20.3334H43.8204V29.166C42.7322 30.3146 42.1537 31.8709 42.1537 33.5001V34.5001C42.1537 35.0001 42.487 35.3334 42.987 35.3334H43.8203V37.0001C43.8203 37.5001 44.1536 37.8334 44.6536 37.8334C45.5703 37.8334 46.3203 38.5834 46.3203 39.5001C46.3203 40.4168 45.5703 41.1668 44.6536 41.1668C43.7369 41.1668 42.9869 40.4168 42.9869 39.5001C42.9869 39.0001 42.6536 38.6668 42.1536 38.6668C41.6536 38.6668 41.3203 39.0001 41.3203 39.5001C41.3203 41.3334 42.8203 42.8334 44.6536 42.8334C46.4869 42.8334 47.9869 41.3334 47.9869 39.5001C47.9869 37.9543 46.9204 36.6454 45.4869 36.2729V35.3334H46.3202C46.8202 35.3334 47.1535 35.0001 47.1535 34.5001V33.5001C47.1535 31.871 46.5751 30.3866 45.4868 29.1809V20.3334H52.1535C52.4868 20.3334 52.7368 20.1667 52.9035 20.0001C52.9871 19.75 53.0704 19.4167 52.9038 19.1667ZM48.3983 13.8222L44.7092 18.2358L42.3871 15.3333L45.0538 12H47.4871L48.3983 13.8222ZM18.2014 14.0833L16.3204 15.4V12.7667L18.2014 14.0833ZM39.7204 12H42.9204L41.3204 14L39.7204 12ZM40.2538 15.3333L37.9871 18.1667L35.7204 15.3334L37.9871 12.5001L40.2538 15.3333ZM34.6538 14L33.0538 12H36.2538L34.6538 14ZM33.5871 15.3333L31.3204 18.1666L29.0537 15.3333L31.3204 12.5L33.5871 15.3333ZM27.9871 14L26.3871 12H29.5871L27.9871 14ZM22.9871 15.4L21.1062 14.0833L22.9871 12.7666V15.4ZM22.4316 17.0444L19.6538 19.2666L16.8761 17.0443L19.6538 15.0999L22.4316 17.0444ZM16.3204 19.5V18.7333L18.3204 20.3333L16.3204 21.9333V19.5ZM20.9871 40.3333L22.9871 38.7333V41.9333L20.9871 40.3333ZM22.5704 43.75L19.7417 46.299L16.8204 43.6667L19.6474 41.4052L22.5704 43.75ZM22.9871 32.0667V35.2667L20.9871 33.6667L22.9871 32.0667ZM19.6538 32.6L16.8205 30.3333L19.6538 28.0666L22.4871 30.3333L19.6538 32.6ZM22.4871 37L19.6538 39.2667L16.8205 37L19.6538 34.7333L22.4871 37ZM22.9871 28.6L20.9871 27L22.9871 25.4V28.6ZM19.6538 25.9333L16.8205 23.6666L19.6538 21.3999L22.4871 23.6666L19.6538 25.9333ZM18.3204 27L16.3204 28.6V25.4L18.3204 27ZM18.3204 33.6667L16.3204 35.2667V32.0667L18.3204 33.6667ZM18.3158 40.337L16.3204 41.9334V38.7363L18.3158 40.337ZM18.4618 47.4522L16.3204 49.3818V45.525L18.4618 47.4522ZM19.7001 48.5667L21.6631 50.3334H17.7371L19.7001 48.5667ZM20.98 47.4147L22.9871 45.6083V49.2234L20.98 47.4147ZM22.9871 19.5V21.9333L20.9871 20.3333L22.9871 18.7333V19.5ZM24.6538 17.1954C24.7054 17.0358 24.7039 16.8761 24.6538 16.7314V12.5L26.9205 15.3333L24.6538 18.1666V17.1954ZM29.5871 18.6667H26.3871L27.9871 16.6667L29.5871 18.6667ZM34.6538 16.6667L36.2538 18.6667H33.0538L34.6538 16.6667ZM41.3204 16.6667L42.9204 18.6667H39.7204L41.3204 16.6667ZM18.9038 3.6667H20.4871L22.8279 10.8449L19.6538 13.0668L16.4841 10.8479L18.9038 3.6667ZM4.65382 14.5V13.6667H7.15382V17C5.73712 17 4.65382 15.9167 4.65382 14.5ZM11.3204 20.3333H8.82042V17.8333V12.8333V10.3333H11.3204V11.1666V19.4999V20.3333ZM12.9871 18.6667V12H14.6538V18.6667H12.9871ZM45.4871 33.6667H43.8204V33.5C43.8204 32.5 44.0704 31.5833 44.6537 30.75C45.237 31.5833 45.487 32.5 45.487 33.5L45.4871 33.6667ZM46.5045 18.6667L49.205 15.4357L50.8204 18.6667H46.5045Z" fill="black"></path> </svg>