<svg xmlns:xlink="http://www.w3.org/1999/xlink"  xmlns="http://www.w3.org/2000/svg"
     version="1.1"  height="50" width="50" x="0" y="0" viewBox="0 0 227.636 227.636"
     style="enable-background:new 0 0 512 512" xml:space="preserve" class=""><g transform="matrix(0.9,0,0,0.8999999999999999,11.381749780278184,11.381900787353516)">
<path xmlns="http://www.w3.org/2000/svg"
      d="M223.061,0H4.575C2.049,0,0.001,2.048,0.001,4.574v218.488c0,2.526,2.048,4.574,4.574,4.574H137.83  c2.526,0,4.573-2.048,4.573-4.574c0-2.526-2.047-4.574-4.573-4.574H9.149V111.881h63.798v43.849c0,2.526,2.048,4.574,4.574,4.574  c2.526,0,4.574-2.048,4.574-4.574V59.96c0-2.526-2.048-4.574-4.574-4.574c-2.526,0-4.574,2.048-4.574,4.574v42.773H9.149V9.148  h124.108v57.271c0,2.526,2.047,4.574,4.573,4.574h48.372c2.526,0,4.573-2.048,4.573-4.574c0-2.526-2.047-4.574-4.573-4.574h-43.799  V9.148h76.085v142.009H137.83c-2.526,0-4.573,2.048-4.573,4.574c0,2.526,2.047,4.574,4.573,4.574h80.658v58.185h-32.286  c-2.526,0-4.573,2.048-4.573,4.574c0,2.526,2.047,4.574,4.573,4.574h36.859c2.526,0,4.573-2.048,4.573-4.574V4.574  C227.635,2.048,225.588,0,223.061,0z"
      fill="#000000" data-original="#000000" style="" class=""/></g></svg>
