<svg width="48" height="32" viewBox="0 0 48 32" role="presentation" fill="none" xmlns="http://www.w3.org/2000/svg"><g clip-path="url(#path-1737427558329)"><g filter="url(#filter-1737427558329)"><path d="M22.3359 21.5039L8.8906 1.3359C8.3342 0.501303 7.39751 0 6.39445 0H41.6056C40.6025 0 39.6658 0.501303 39.1094 1.3359L25.6641 21.5038C24.8725 22.6913 23.1275 22.6913 22.3359 21.5039Z" fill="white"></path><path d="M4 0C3.72386 0 3.5 0.223858 3.5 0.5C3.5 0.776142 3.72386 1 4 1V0ZM9.18747 2.2812L9.60349 2.00385V2.00385L9.18747 2.2812ZM21.5038 20.7558L21.0878 21.0331L21.5038 20.7558ZM26.4962 20.7558L26.0801 20.4784L26.4962 20.7558ZM38.8125 2.2812L38.3965 2.00385L38.8125 2.2812ZM44 1C44.2761 1 44.5 0.776142 44.5 0.5C44.5 0.223858 44.2761 0 44 0V1ZM4 1H5.85926V0H4V1ZM8.77144 2.55855L21.0878 21.0331L21.9199 20.4784L9.60349 2.00385L8.77144 2.55855ZM26.9122 21.0331L39.2286 2.55855L38.3965 2.00385L26.0801 20.4784L26.9122 21.0331ZM42.1407 1H44V0H42.1407V1ZM39.2286 2.55855C39.8777 1.58485 40.9705 1 42.1407 1V0C40.6361 0 39.2311 0.751954 38.3965 2.00385L39.2286 2.55855ZM21.0878 21.0331C22.4732 23.1112 25.5268 23.1112 26.9122 21.0331L26.0801 20.4784C25.0906 21.9628 22.9094 21.9628 21.9199 20.4784L21.0878 21.0331ZM5.85926 1C7.0295 1 8.12231 1.58485 8.77144 2.55855L9.60349 2.00385C8.7689 0.751955 7.36385 0 5.85926 0V1Z" fill="#CAC8D1"></path></g></g><defs><filter id="filter-1737427558329" x="-6" y="-4" width="60" height="37" filterUnits="userSpaceOnUse" color-interpolation-filters="sRGB"><feFlood flood-opacity="0" result="BackgroundImageFix"></feFlood><feColorMatrix in="SourceAlpha" type="matrix" values="0 0 0 0 0 0 0 0 0 0 0 0 0 0 0 0 0 0 127 0" result="hardAlpha"></feColorMatrix><feMorphology radius="2" operator="dilate" in="SourceAlpha" result="effect1_dropShadow_15783_139890"></feMorphology><feOffset dy="2"></feOffset><feGaussianBlur stdDeviation="2"></feGaussianBlur><feColorMatrix type="matrix" values="0 0 0 0 0.0509804 0 0 0 0 0.0509804 0 0 0 0 0.0588235 0 0 0 0.08 0"></feColorMatrix><feBlend mode="normal" in2="BackgroundImageFix" result="effect1_dropShadow_15783_139890"></feBlend><feBlend mode="normal" in="SourceGraphic" in2="effect1_dropShadow_15783_139890" result="shape"></feBlend></filter><clipPath id="path-1737427558329"><rect width="48" height="32" fill="white"></rect></clipPath></defs></svg>